<svg width="400" height="400" viewBox="0 0 400 400" fill="none" xmlns="http://www.w3.org/2000/svg">
<g clip-path="url(#clip0_29_6748)">
<path d="M0 0H400V400H0V0Z" fill="#FEFEFE"/>
<path d="M352.59 174.345C353.509 175.177 354.614 181.149 355.21 182.664C357.96 182.545 360.647 181.995 363.374 181.654C361.014 183.613 358.45 185.042 356.333 187.319C357.313 190.126 358.503 192.858 359.654 195.599C357.255 193.985 355.173 191.88 353.067 189.913C350.298 191.213 347.767 193.776 345.466 195.761C346.54 192.766 348.002 190 348.943 186.921C346.662 184.939 344.008 183.465 341.755 181.45C344.68 182.097 347.465 182.26 350.448 182.367C351.294 179.734 351.778 176.991 352.59 174.345Z" fill="#D1E1DD"/>
<path d="M256.375 80.3234C257.261 74.7406 258.837 69.9332 262.416 65.4695C262.691 65.1245 262.973 64.7863 263.265 64.4551C263.556 64.1238 263.855 63.8 264.162 63.4836C264.469 63.1669 264.784 62.8582 265.107 62.5574C265.429 62.2564 265.759 61.9635 266.095 61.6789C266.432 61.3943 266.776 61.1181 267.126 60.8504C267.477 60.5827 267.834 60.3237 268.197 60.0734C268.56 59.8232 268.929 59.5822 269.304 59.3504C269.679 59.1184 270.06 58.8957 270.446 58.6824C270.832 58.4694 271.223 58.2659 271.619 58.0719C272.015 57.8781 272.416 57.6941 272.821 57.5199C273.226 57.3457 273.636 57.1816 274.049 57.0277C274.462 56.8738 274.879 56.7301 275.299 56.5965C275.72 56.4632 276.143 56.3402 276.57 56.2277C276.996 56.1152 277.425 56.0133 277.856 55.9219C278.288 55.8305 278.721 55.7497 279.157 55.6797C279.592 55.6096 280.029 55.5504 280.467 55.502C288.089 54.6981 295.363 56.7606 301.316 61.5816C307.05 66.2254 310.469 73.1297 311.215 80.4316C320.017 80.2293 327.454 81.0133 334.352 87.1004C339.672 91.7949 343.195 98.4379 343.618 105.564C344.008 112.12 342.038 119.288 337.606 124.261C335.447 124.468 333.2 124.356 331.03 124.348L320.081 124.312L284.185 124.204L284.158 122.871C301.659 123.069 319.218 122.986 336.722 122.825C340.558 118.707 342.355 112.912 342.279 107.34C342.275 106.914 342.261 106.489 342.236 106.064C342.212 105.639 342.177 105.215 342.131 104.792C342.085 104.369 342.029 103.947 341.963 103.527C341.897 103.106 341.82 102.687 341.733 102.271C341.646 101.854 341.549 101.44 341.442 101.028C341.335 100.616 341.217 100.207 341.09 99.8008C340.963 99.3945 340.825 98.9917 340.678 98.5922C340.531 98.193 340.374 97.7974 340.207 97.4055C340.041 97.0138 339.865 96.6264 339.679 96.2434C339.493 95.8603 339.298 95.482 339.094 95.1086C338.89 94.7352 338.677 94.3669 338.454 94.0039C338.232 93.6409 338.001 93.2836 337.761 92.932C337.521 92.5805 337.273 92.2349 337.016 91.8953C336.759 91.556 336.494 91.2231 336.22 90.8965C335.947 90.5702 335.666 90.2508 335.377 89.9383C335.088 89.6255 334.792 89.3202 334.488 89.0223C327.212 81.9445 319.515 81.7023 309.984 81.8344C309.501 76.0902 307.807 70.8082 304.124 66.2773C299.562 60.6641 293.216 57.4602 286.061 56.7883C285.639 56.7479 285.216 56.7181 284.792 56.6988C284.368 56.6796 283.944 56.671 283.52 56.673C283.095 56.6749 282.671 56.6874 282.248 56.7106C281.824 56.7335 281.401 56.7671 280.979 56.8113C280.557 56.8556 280.137 56.9103 279.717 56.9754C279.298 57.0405 278.881 57.116 278.465 57.202C278.05 57.2882 277.637 57.3845 277.226 57.491C276.816 57.5975 276.408 57.7143 276.003 57.8414C275.598 57.9682 275.196 58.1052 274.799 58.2524C274.401 58.3992 274.007 58.556 273.616 58.7227C273.226 58.8893 272.84 59.0656 272.459 59.2516C272.078 59.4372 271.701 59.6324 271.329 59.8371C270.958 60.0418 270.591 60.2556 270.231 60.4785C269.87 60.7014 269.514 60.9333 269.165 61.1742C268.815 61.4148 268.472 61.6641 268.135 61.9219C267.798 62.1797 267.468 62.4457 267.144 62.7199C261.257 67.6188 258.401 74.1805 257.726 81.6754C248.813 81.6895 241.511 81.7227 234.667 88.2973C230.446 92.3512 227.707 98.1449 227.652 104.041C227.606 109.007 229.705 114.246 233.23 117.748C238.015 122.501 242.536 122.953 248.935 122.934L257.612 122.895C257.608 123.384 257.634 123.893 257.57 124.378C248.325 124.323 239.729 126.001 232.485 118.902C228.498 114.995 226.381 109.376 226.388 103.826C226.397 97.7418 229.373 91.5332 233.688 87.3188C240.24 80.918 247.684 80.2586 256.375 80.3234Z" fill="#010101"/>
<path d="M327.877 281.759C333.249 281.927 338.504 284.409 342.17 288.301C345.919 292.282 348.005 297.483 347.811 302.958C347.612 308.582 345.769 314.013 341.537 317.884C337.058 321.98 331.888 323.605 325.87 323.279C325.503 323.261 325.136 323.234 324.77 323.198C324.403 323.162 324.038 323.117 323.674 323.063C323.31 323.008 322.948 322.945 322.587 322.873C322.226 322.801 321.867 322.719 321.511 322.629C321.154 322.539 320.8 322.44 320.448 322.332C320.096 322.224 319.747 322.108 319.401 321.982C319.055 321.857 318.712 321.723 318.373 321.581C318.033 321.438 317.697 321.288 317.366 321.129C317.034 320.97 316.706 320.802 316.382 320.627C316.059 320.451 315.74 320.268 315.426 320.077C315.112 319.886 314.802 319.686 314.497 319.48C314.193 319.273 313.894 319.059 313.6 318.837C313.306 318.616 313.018 318.387 312.736 318.151C312.453 317.915 312.177 317.672 311.907 317.422C311.637 317.172 311.373 316.916 311.115 316.653C310.858 316.39 310.607 316.121 310.363 315.845C308.777 314.039 307.277 311.881 306.369 309.644C305.895 308.476 305.667 306.864 304.889 305.872C304.479 305.351 304.134 305.364 303.511 305.279C310.23 305.269 318.492 306.506 323.699 301.29C328.896 296.085 327.845 288.48 327.877 281.759Z" fill="#D1E1DD"/>
<path d="M165.647 44.7C170.341 44.3285 175.287 44.6246 180.007 44.627C183.617 44.6293 188.337 44.25 191.836 44.8086C192.498 44.9141 192.986 44.9844 193.345 45.6063C193.692 46.2059 193.727 46.9652 193.754 47.6418C194.069 55.5555 193.792 63.593 193.791 71.523C193.791 74.857 194.191 82.2801 193.584 85.2523C193.384 86.2293 192.807 86.625 192.029 87.1332C189.144 87.3551 186.143 87.2305 183.242 87.2762C177.403 87.3684 171.402 87.5727 165.584 87.1324C165.081 86.7859 164.442 86.4215 164.15 85.8621C163.971 85.5195 163.565 48.5656 164.167 46.2574C164.385 45.4211 164.949 45.1012 165.647 44.7Z" fill="#F16F6E"/>
<path d="M165.475 45.2121C167.954 45.0227 191.966 44.9707 192.571 45.5203C192.997 45.9066 193.141 46.6113 193.224 47.1594C193.728 50.4918 193.314 57.2543 193.319 60.9164L193.339 75.9051C193.342 78.5488 193.46 81.25 193.289 83.8879C193.238 84.6719 193.19 85.5176 192.707 86.1648C191.237 87.0441 188.073 86.7727 186.423 86.4559C185.301 84.2594 183.807 82.3512 181.534 81.2477C179.519 80.2691 177.08 80.2246 175 81.0402C172.311 82.0949 170.908 84.1301 169.847 86.691C168.889 86.7117 167.923 86.75 166.966 86.7184C165.999 86.6863 165.227 86.5102 164.55 85.7949C164.168 83.8328 164.099 48.5789 164.446 46.7383C164.586 46 164.828 45.6285 165.475 45.2121Z" fill="#FEFEFE"/>
<path d="M177.017 61.552C178.055 61.4516 179.064 61.4078 180.066 61.7516C181.366 62.1973 182.46 63.0906 183.036 64.3524C183.609 65.6055 183.588 67.0684 183.099 68.3434C182.416 70.1203 181.018 71.1688 179.318 71.8867C178.174 72.143 177.128 72.0453 176.045 71.577C174.81 71.0426 173.853 69.9481 173.396 68.691C172.886 67.2859 173.001 65.6789 173.646 64.3359C174.386 62.7945 175.462 62.1168 177.017 61.552Z" fill="#F16F6E"/>
<path d="M103.561 88.7078C105.06 88.5223 106.571 88.6602 107.995 89.1754C110.327 90.0195 112.235 91.8735 113.255 94.1231C113.321 94.2728 113.384 94.4241 113.443 94.577C113.502 94.7298 113.557 94.8841 113.609 95.0399C113.66 95.1956 113.707 95.3525 113.75 95.5106C113.794 95.6684 113.833 95.8274 113.868 95.9875C113.904 96.1477 113.935 96.3085 113.962 96.4699C113.989 96.6317 114.012 96.7939 114.031 96.9567C114.05 97.1194 114.065 97.2826 114.076 97.4461C114.087 97.6096 114.093 97.7733 114.096 97.9371C114.098 98.1009 114.097 98.2647 114.091 98.4285C114.085 98.5923 114.075 98.7559 114.061 98.9192C114.047 99.0824 114.029 99.2453 114.007 99.4078C113.985 99.5701 113.958 99.7317 113.928 99.8926C113.897 100.054 113.863 100.214 113.825 100.373C113.786 100.533 113.743 100.691 113.697 100.848C113.651 101.005 113.6 101.161 113.546 101.316C113.491 101.47 113.433 101.623 113.371 101.775C112.438 104.077 110.597 106.053 108.284 106.998C105.413 108.172 102.823 107.639 100.072 106.543C92.666 109.108 82.0613 116.018 76.0039 121.123C58.1922 136.137 53.4824 148.991 51.5301 171.631C54.3321 171.666 66.8469 170.978 68.4199 172.274C69.3508 173.041 69.4621 174.162 69.5078 175.297C69.8305 183.257 69.4766 191.346 69.4301 199.319L69.3828 208.698C69.3781 210.668 69.4945 212.737 69.2578 214.694C69.184 215.303 69.0664 215.747 68.6223 216.182C67.575 217.206 65.7043 216.968 64.3672 216.943C56.6203 216.724 48.8766 216.896 41.1289 216.8C40.534 216.308 39.7778 215.613 39.5293 214.865C38.8646 212.864 39.3746 189.943 39.3797 186.291C39.3848 182.873 39.1496 179.414 39.286 176.003C39.3266 174.992 39.3707 173.495 39.8457 172.606C42.2098 170.964 48.2137 171.648 51.1551 171.668C51.7571 164.847 52.3512 158.13 54.3176 151.532C59.2817 134.875 72.5602 121.4 87.1906 112.582C91.2012 110.166 95.5352 108.36 99.6504 106.142C97.5891 104.611 95.9961 102.673 95.3684 100.13C95.3317 99.9813 95.2986 99.8313 95.2692 99.6805C95.24 99.5297 95.2147 99.3783 95.1934 99.2262C95.1718 99.0741 95.154 98.9216 95.1402 98.7688C95.1264 98.6159 95.1166 98.4626 95.1106 98.309C95.1046 98.1556 95.1025 98.0021 95.1043 97.8485C95.1061 97.6951 95.1119 97.5417 95.1215 97.3883C95.1311 97.2349 95.1445 97.0819 95.1617 96.9293C95.1792 96.7767 95.2004 96.6246 95.2254 96.4731C95.2507 96.3218 95.2796 96.171 95.3121 96.0207C95.3449 95.8707 95.3815 95.7216 95.4219 95.5734C95.4622 95.4253 95.5063 95.2781 95.5539 95.132C95.6016 94.9862 95.653 94.8415 95.7082 94.6981C95.7634 94.5548 95.8221 94.413 95.8844 94.2727C95.9466 94.1323 96.0125 93.9936 96.082 93.8567C96.1513 93.7194 96.2241 93.5841 96.3004 93.4508C96.3767 93.3175 96.4563 93.1862 96.5391 93.057C98.1758 90.5242 100.731 89.3465 103.561 88.7078Z" fill="#5677BA"/>
<path d="M103.428 89.0816C105.542 88.9402 107.472 89.232 109.333 90.309C111.316 91.457 112.847 93.3422 113.41 95.5777C114.041 98.0816 113.677 100.998 112.274 103.178C110.733 105.571 108.5 106.635 105.806 107.173C104.067 107.339 102.572 107.2 100.964 106.438C98.6272 105.33 96.7151 103.186 95.9421 100.713C95.2112 98.3758 95.4421 95.7359 96.6593 93.6004C98.1765 90.9391 100.592 89.8102 103.428 89.0816Z" fill="#FEFEFE"/>
<path d="M46.3761 216.475C44.7707 216.38 41.5875 216.919 40.425 215.645C39.8726 215.039 39.8386 213.676 39.8039 212.878C39.4164 204.016 39.8195 194.752 39.8062 185.85C39.8015 182.915 39.3093 176.984 39.7714 174.457C39.8953 173.778 40.1921 172.697 40.8785 172.37C42.0152 171.827 63.2625 171.903 65.9043 172.051C66.6757 172.094 67.4117 172.195 68.1492 172.438C68.8515 173.025 68.9609 174.085 69.0449 174.947C69.2402 176.944 69.1164 179.039 69.1085 181.046L69.0453 192.037C68.9808 199.284 69.2179 206.615 68.925 213.85C68.9035 214.381 68.9078 215.22 68.5886 215.659C67.5132 217.139 62.5398 216.52 60.7972 216.518C57.6233 216.483 54.4493 216.489 51.2753 216.535C49.689 216.552 47.9312 216.769 46.3761 216.475Z" fill="#FEFEFE"/>
<path d="M53.053 190.453C53.9772 190.431 54.7835 190.5 55.6554 190.83C57.0476 191.355 58.1851 192.352 58.753 193.743C58.8116 193.888 58.8631 194.036 58.9073 194.186C58.9513 194.336 58.9878 194.488 59.0167 194.642C59.0456 194.796 59.067 194.951 59.0808 195.106C59.0943 195.262 59.1002 195.418 59.0983 195.575C59.0965 195.731 59.087 195.887 59.0698 196.043C59.0526 196.198 59.0276 196.352 58.9948 196.505C58.9623 196.659 58.9223 196.81 58.8749 196.959C58.8273 197.108 58.7724 197.254 58.7105 197.398C57.9636 199.149 56.6858 199.971 55.0093 200.672C53.7691 200.819 52.6866 200.754 51.5507 200.185C51.4017 200.11 51.2569 200.028 51.1163 199.938C50.9757 199.849 50.8399 199.752 50.7089 199.649C50.5779 199.546 50.4524 199.437 50.3323 199.321C50.212 199.206 50.098 199.084 49.9901 198.957C49.8821 198.83 49.7806 198.698 49.6858 198.561C49.5911 198.424 49.5033 198.283 49.4226 198.137C49.3418 197.991 49.2685 197.841 49.2026 197.688C49.137 197.535 49.0791 197.379 49.0288 197.22C48.5921 195.858 48.7073 194.299 49.3964 193.039C50.2288 191.518 51.4698 190.941 53.053 190.453Z" fill="#F16F6E"/>
<path d="M46.3762 216.475C46.7379 213.882 47.3782 211.593 49.6075 209.96C51.0926 208.873 52.9754 208.371 54.7965 208.72C56.661 209.077 58.2493 210.336 59.2688 211.904C60.2043 213.343 60.5348 214.851 60.7973 216.518C57.6234 216.483 54.4494 216.489 51.2754 216.535C49.6891 216.552 47.9313 216.769 46.3762 216.475Z" fill="#F16F6E"/>
<path d="M257.726 81.6754C258.401 74.1805 261.257 67.6188 267.144 62.7199C267.468 62.4457 267.798 62.1797 268.135 61.9219C268.472 61.6641 268.815 61.4149 269.165 61.1742C269.514 60.9333 269.869 60.7014 270.23 60.4785C270.591 60.2556 270.958 60.0418 271.329 59.8371C271.701 59.6324 272.077 59.4372 272.459 59.2516C272.84 59.0656 273.226 58.8893 273.616 58.7227C274.006 58.556 274.4 58.3992 274.798 58.2524C275.196 58.1052 275.598 57.9682 276.003 57.8414C276.408 57.7143 276.815 57.5975 277.226 57.491C277.637 57.3845 278.05 57.2882 278.465 57.202C278.88 57.116 279.298 57.0405 279.717 56.9754C280.136 56.9103 280.557 56.8556 280.979 56.8113C281.401 56.7671 281.824 56.7335 282.248 56.7106C282.671 56.6874 283.095 56.6749 283.519 56.673C283.944 56.671 284.368 56.6796 284.792 56.6988C285.215 56.7181 285.638 56.7479 286.061 56.7883C293.216 57.4602 299.562 60.6641 304.124 66.2773C307.807 70.8082 309.501 76.0902 309.983 81.8344C319.515 81.7023 327.212 81.9445 334.488 89.0223C334.792 89.3202 335.088 89.6255 335.377 89.9383C335.666 90.2508 335.947 90.5702 336.22 90.8965C336.494 91.2231 336.759 91.556 337.016 91.8953C337.272 92.2349 337.521 92.5805 337.761 92.932C338.001 93.2836 338.232 93.6409 338.454 94.0039C338.676 94.3669 338.89 94.7352 339.094 95.1086C339.298 95.482 339.493 95.8603 339.679 96.2434C339.864 96.6264 340.041 97.0138 340.207 97.4055C340.374 97.7974 340.53 98.193 340.678 98.5922C340.825 98.9917 340.962 99.3945 341.09 99.8008C341.217 100.207 341.334 100.616 341.442 101.028C341.549 101.44 341.646 101.854 341.733 102.271C341.82 102.687 341.896 103.106 341.963 103.527C342.029 103.947 342.085 104.369 342.131 104.792C342.176 105.215 342.211 105.639 342.236 106.064C342.261 106.489 342.275 106.914 342.279 107.34C342.355 112.912 340.558 118.707 336.721 122.825C319.218 122.986 301.659 123.069 284.158 122.871L284.185 124.204C284.155 126.221 284.076 128.25 284.125 130.266C285.591 130.261 289.842 129.923 290.98 130.553C290.381 132.231 278.621 141.707 276.468 143.971C272.376 144.14 268.19 144.049 264.096 143.923C260.768 141.334 257.818 138.17 254.753 135.276C253.417 134.016 251.594 132.689 250.496 131.244C250.213 130.871 250.236 130.808 250.3 130.373C251.387 129.721 255.875 130.141 257.439 130.139C257.441 128.22 257.393 126.289 257.57 124.378C257.634 123.893 257.607 123.384 257.612 122.895L248.935 122.934C242.535 122.953 238.015 122.501 233.23 117.748C229.705 114.246 227.606 109.007 227.652 104.041C227.707 98.1449 230.446 92.3512 234.667 88.2973C241.511 81.7227 248.812 81.6895 257.726 81.6754Z" fill="#FEFEFE"/>
<path d="M257.612 122.895C257.597 119.311 257.175 103.306 257.971 101.049C259.625 100.251 281.773 100.328 283.443 101.089C283.701 101.207 283.716 101.236 283.905 101.391C284.266 103.573 284.002 106.02 284.003 108.245C284.005 113.098 283.934 118.027 284.158 122.871L284.185 124.204C284.155 126.221 284.077 128.25 284.125 130.266C285.591 130.261 289.842 129.923 290.98 130.553C290.381 132.231 278.621 141.707 276.468 143.971C272.376 144.14 268.19 144.049 264.096 143.923C260.768 141.334 257.818 138.17 254.753 135.276C253.418 134.016 251.595 132.689 250.496 131.244C250.213 130.871 250.236 130.808 250.3 130.373C251.388 129.721 255.875 130.141 257.439 130.139C257.441 128.22 257.393 126.289 257.57 124.378C257.634 123.893 257.607 123.384 257.612 122.895Z" fill="#F16F6E"/>
<path d="M177.43 112.786C178.101 109.709 178.918 106.629 181.579 104.627C181.672 104.555 181.767 104.487 181.863 104.421C181.959 104.355 182.057 104.291 182.157 104.23C182.257 104.169 182.358 104.11 182.461 104.055C182.563 103.999 182.667 103.945 182.773 103.895C182.878 103.845 182.985 103.797 183.093 103.752C183.2 103.707 183.309 103.665 183.42 103.625C183.53 103.586 183.641 103.55 183.752 103.516C183.864 103.482 183.977 103.451 184.091 103.424C184.204 103.396 184.318 103.371 184.433 103.349C184.548 103.327 184.663 103.308 184.779 103.292C184.895 103.276 185.011 103.263 185.128 103.253C185.244 103.243 185.361 103.236 185.478 103.232C185.594 103.228 185.711 103.227 185.828 103.229C185.945 103.231 186.062 103.236 186.179 103.245C186.295 103.253 186.411 103.264 186.527 103.278C186.644 103.292 186.759 103.309 186.874 103.329C186.988 103.347 187.1 103.367 187.212 103.391C187.324 103.415 187.436 103.442 187.547 103.471C187.657 103.501 187.767 103.534 187.876 103.569C187.985 103.605 188.093 103.643 188.2 103.684C188.307 103.726 188.413 103.77 188.517 103.816C188.622 103.863 188.725 103.913 188.827 103.965C188.929 104.018 189.03 104.073 189.129 104.13C189.228 104.188 189.325 104.249 189.421 104.311C189.517 104.374 189.611 104.44 189.703 104.508C189.795 104.576 189.886 104.646 189.974 104.718C190.063 104.791 190.15 104.866 190.234 104.944C190.319 105.021 190.401 105.1 190.482 105.182C190.562 105.264 190.64 105.348 190.716 105.434C190.792 105.519 190.866 105.607 190.937 105.697C191.008 105.787 191.077 105.878 191.143 105.971C191.21 106.065 191.274 106.16 191.335 106.257C193.389 109.441 192.186 112.936 191.471 116.327C193.072 117.339 194.632 118.32 196.081 119.546C198.514 117.567 200.636 115.145 204.034 115.127C204.263 115.127 204.491 115.137 204.718 115.159C204.946 115.181 205.172 115.214 205.397 115.259C205.621 115.303 205.842 115.358 206.061 115.425C206.28 115.491 206.495 115.568 206.706 115.655C206.918 115.743 207.124 115.841 207.326 115.949C207.527 116.057 207.723 116.175 207.913 116.302C208.103 116.43 208.286 116.566 208.462 116.712C208.638 116.857 208.807 117.011 208.968 117.173C209.121 117.326 209.265 117.486 209.401 117.653C209.536 117.82 209.663 117.994 209.781 118.174C209.9 118.354 210.008 118.54 210.107 118.732C210.206 118.923 210.294 119.119 210.373 119.32C210.452 119.52 210.52 119.724 210.578 119.932C210.635 120.139 210.682 120.349 210.718 120.562C210.754 120.774 210.779 120.988 210.793 121.203C210.807 121.418 210.81 121.633 210.802 121.848C210.699 125.596 208.095 127.746 205.578 130.081L207.839 134.963C210.556 134.464 213.507 133.787 216.157 134.942C217.664 135.598 218.959 136.759 219.501 138.34C220.161 140.269 219.599 142.1 218.731 143.835C224.632 143.996 230.557 143.842 236.461 143.83L264.096 143.923C268.19 144.049 272.376 144.14 276.468 143.971L303.512 143.954C307.403 143.946 313.401 143.439 317.075 144.223C319.586 144.758 321.7 145.981 323.526 147.776C327.596 151.775 327.758 156.235 327.784 161.627L327.804 169.474L327.877 281.759C327.845 288.48 328.896 296.085 323.699 301.29C318.492 306.506 310.23 305.269 303.511 305.279L229.118 305.273C230.813 311.872 232.137 318.547 233.625 325.192C235.207 332.254 236.939 339.273 238.434 346.357C241.57 346.402 244.719 346.18 247.85 346.402C247.93 349.059 247.869 351.732 247.866 354.391C258.009 354.638 268.229 354.406 278.379 354.384L329.398 354.366L349.889 354.373C352.34 354.371 355.798 354.019 358.107 354.383C358.673 354.473 359.016 354.696 359.325 355.163L359.135 355.495C358.736 355.654 358.453 355.72 358.016 355.743C354.847 355.904 351.606 355.779 348.427 355.786L329.208 355.799L275.684 355.858L121.148 355.856L72.6844 355.873L58.0586 355.871C55.0426 355.87 51.9266 356.025 48.9286 355.698C48.8579 355.464 48.7817 355.229 48.745 354.986C48.3496 352.372 48.5899 349.417 48.5856 346.77L48.5731 330.782L48.5664 313.316C48.5422 308.899 48.1735 304.266 48.9176 299.903C49.0033 299.379 49.1041 298.858 49.22 298.34C49.3358 297.822 49.4667 297.308 49.6125 296.797C49.7581 296.287 49.9185 295.781 50.0938 295.28C50.2688 294.778 50.4581 294.283 50.6618 293.793C50.8657 293.302 51.0835 292.818 51.3153 292.341C51.547 291.863 51.7925 291.393 52.0516 290.929C52.3107 290.466 52.583 290.01 52.8684 289.563C53.1538 289.115 53.452 288.676 53.7629 288.246C58.9649 281.029 66.052 277.505 74.6696 276.096L74.6407 270.136C72.1493 268.141 69.925 265.846 68.6164 262.889C66.8489 258.894 66.2672 252.654 67.9465 248.536C69.3286 245.146 71.7993 243.716 75.002 242.364C75.1627 215.224 75.1469 188.083 74.9547 160.943C74.9383 156.103 75.5399 152.039 79.111 148.496C81.1739 146.45 83.7336 144.97 86.5746 144.34C91.1336 143.33 98.4196 143.825 103.302 143.819L131.85 143.805C131.879 143.348 131.922 142.893 131.978 142.438C132.202 140.689 132.979 139.141 134.425 138.087C137.138 136.108 141.031 136.539 144.146 136.972C144.782 135.508 145.337 134.01 145.905 132.518C143.813 130.502 140.306 128.904 139.357 126.055C138.771 124.296 139.01 122.387 139.907 120.775C139.968 120.664 140.032 120.554 140.1 120.445C140.167 120.337 140.236 120.23 140.309 120.126C140.381 120.021 140.456 119.918 140.534 119.817C140.612 119.716 140.692 119.617 140.775 119.52C140.857 119.423 140.943 119.329 141.03 119.236C141.118 119.144 141.207 119.053 141.3 118.965C141.392 118.877 141.486 118.792 141.582 118.709C141.679 118.625 141.777 118.545 141.878 118.466C141.979 118.388 142.081 118.312 142.185 118.239C142.29 118.166 142.396 118.096 142.504 118.029C142.612 117.961 142.721 117.896 142.832 117.834C142.944 117.772 143.056 117.713 143.171 117.656C143.285 117.6 143.401 117.546 143.518 117.496C143.635 117.445 143.753 117.398 143.872 117.353C143.991 117.309 144.112 117.267 144.233 117.229C144.355 117.191 144.477 117.155 144.6 117.123C148.614 116.116 151.023 119.22 154.181 120.988L154.429 121.125L158.256 118.075C157.424 114.786 155.678 111.836 157.052 108.385C157.096 108.274 157.142 108.165 157.191 108.057C157.241 107.949 157.293 107.842 157.348 107.737C157.402 107.631 157.46 107.527 157.52 107.425C157.579 107.322 157.642 107.221 157.707 107.122C157.772 107.023 157.84 106.925 157.91 106.829C157.98 106.733 158.052 106.639 158.127 106.547C158.202 106.455 158.279 106.364 158.359 106.276C158.438 106.188 158.52 106.102 158.604 106.018C158.687 105.933 158.773 105.851 158.861 105.771C158.949 105.692 159.039 105.614 159.131 105.539C159.223 105.464 159.317 105.391 159.413 105.321C159.508 105.25 159.605 105.182 159.704 105.116C159.804 105.051 159.904 104.988 160.007 104.928C160.109 104.867 160.212 104.81 160.318 104.754C160.423 104.699 160.529 104.647 160.637 104.597C160.745 104.548 160.854 104.501 160.964 104.456C162.683 103.756 164.608 103.736 166.305 104.511C169.641 106.036 170.651 109.603 171.866 112.743L177.43 112.786Z" fill="#010101"/>
<path d="M131.368 318.893C131.8 318.977 132.006 319.149 132.343 319.424C132.339 319.531 132.368 319.645 132.331 319.746C132.247 319.975 130.472 321.141 130.172 321.384C128.478 322.754 126.934 324.306 125.378 325.828L125.049 325.86L124.546 325C125.213 323.44 129.82 319.956 131.368 318.893Z" fill="#F16F6E"/>
<path d="M104.561 321.045C105.489 321.867 107.454 328.816 107.994 330.475C106.844 330.452 105.675 330.314 104.527 330.223C104.483 327.163 104.495 324.104 104.561 321.045Z" fill="#FEFEFE"/>
<path d="M88.18 255.652L88.555 255.783C89.5733 256.92 90.4401 257.997 90.9937 259.45C91.7304 261.384 91.7921 263.523 90.9077 265.427C90.4585 266.394 89.7226 267.192 88.6835 267.512C87.2206 267.963 85.6022 267.51 84.2839 266.839C84.0706 269.684 84.1265 272.552 84.1229 275.404C81.4448 275.349 78.7827 275.487 76.1104 275.641L76.0894 272.412L76.1237 270.629L76.9249 270.689C77.787 270.754 78.5948 270.808 79.4522 270.652C80.9597 270.378 82.3327 269.682 83.1925 268.377C83.7687 267.502 83.9894 266.572 84.1917 265.56C84.3038 265 84.5444 264.146 84.4487 263.583C84.2608 262.479 81.071 261.304 80.6769 259.223C80.5444 258.524 80.7983 257.829 81.2347 257.282C81.5417 256.896 81.7163 256.711 82.2237 256.666C82.9503 257.432 82.7562 258.492 83.1956 259.371C83.3956 259.772 83.6136 259.82 83.9964 259.947L84.2929 259.71C84.587 258.951 84.653 258.214 84.3862 257.431C84.3437 257.306 84.296 257.182 84.2507 257.058C85.0331 256.393 87.1163 256.066 88.18 255.652Z" fill="#FEFEFE"/>
<path d="M174.516 128.964C178.502 128.593 182.458 129.534 185.712 131.893C189.871 134.909 191.792 138.865 192.563 143.827C187.806 143.946 183.02 143.833 178.26 143.823C172.076 143.854 165.892 143.844 159.708 143.795C160.231 140.767 161.166 138.056 163.043 135.586C165.914 131.81 169.853 129.615 174.516 128.964Z" fill="#FEFEFE"/>
<path d="M117.904 309.767C119.049 311.764 119.646 314.468 120.331 316.674C121.571 320.666 122.746 324.668 124.321 328.545C125.686 327.582 133.869 320.692 134.292 319.705C134.385 319.489 133.93 318.547 133.841 318.278C134.612 317.098 143.693 312.378 145.769 311.205C144.067 315.463 142.606 319.813 140.895 324.068C139.489 324.958 138.044 325.789 136.613 326.637C133.716 328.295 130.713 329.756 127.761 331.311C122.469 334.167 117.142 336.955 111.78 339.676C110.024 331.546 107.25 323.849 104.486 316.033C110.077 314.378 113.023 312.887 117.904 309.767Z" fill="#FEFEFE"/>
<path d="M125.056 296.384C132.27 296.312 139.506 296.226 146.718 296.413C146.727 300.623 146.852 304.9 146.592 309.102C144.871 310.33 142.87 311.311 141.024 312.345C138.022 314.027 135.045 315.718 132.129 317.549L131.634 317.742C131.485 317.7 131.336 317.662 131.186 317.626C130.949 317.571 130.637 317.482 130.394 317.552C129.087 317.929 125.621 321.888 123.826 323.021C123.135 321.145 119.343 310.16 119.583 308.881C119.656 308.821 119.926 308.608 119.971 308.535C120.366 307.901 116.944 297.785 116.492 296.459L125.056 296.384Z" fill="#FEFEFE"/>
<path d="M176.122 347.754L246.598 347.858L246.588 354.332L233.301 354.308L184.125 354.314C177.02 354.333 169.907 354.518 162.804 354.461C163.698 352.25 164.322 350.164 164.727 347.81C168.521 347.721 172.327 347.769 176.122 347.754Z" fill="#FEFEFE"/>
<path d="M148.017 305.307C155.907 305.016 163.919 305.248 171.816 305.27C170.666 309.377 164.981 338.08 163.843 339.327L163.578 339.013C162.002 335.849 160.248 332.963 157.493 330.683C152.258 326.354 146.539 325.776 140.048 326.355C141.23 325.486 142.534 324.889 143.727 324.054L143.781 323.716C143.608 323.598 143.249 323.394 143.103 323.223C142.875 322.955 142.912 322.881 143.016 322.566C144.377 318.437 146.975 312.913 147.753 308.845C147.973 307.695 147.973 306.474 148.017 305.307Z" fill="#FEFEFE"/>
<path d="M141.315 327.6C141.356 327.593 141.397 327.584 141.438 327.579C146.961 326.959 152.775 328.538 157.02 332.172C157.241 332.364 157.457 332.561 157.667 332.763C157.878 332.965 158.084 333.173 158.285 333.385C158.486 333.597 158.682 333.814 158.872 334.036C159.062 334.257 159.247 334.483 159.427 334.714C159.606 334.944 159.78 335.179 159.948 335.418C160.116 335.657 160.279 335.9 160.435 336.146C160.591 336.393 160.742 336.644 160.886 336.898C161.03 337.152 161.168 337.409 161.3 337.67C161.432 337.931 161.557 338.195 161.676 338.462C161.795 338.728 161.908 338.998 162.014 339.27C162.12 339.543 162.219 339.817 162.312 340.094C162.405 340.371 162.49 340.65 162.57 340.932C162.649 341.213 162.721 341.496 162.786 341.781C162.852 342.066 162.911 342.352 162.962 342.639C163.014 342.927 163.059 343.216 163.096 343.505C163.134 343.795 163.165 344.085 163.188 344.377C163.347 346.476 162.909 352.47 161.289 353.913C160.814 354.336 160.308 354.305 159.699 354.333C154.802 354.553 149.783 354.315 144.872 354.316L114.005 354.37C121.066 351.376 128.236 348.257 135.037 344.711C135.583 344.238 135.706 344.168 135.928 343.451L135.708 343.146C133.743 342.952 115.335 352.884 111.105 353.999C109.04 354.543 106.787 354.377 104.667 354.365L104.681 333.317C105.982 333.026 107 332.631 108.125 331.903C109.037 335.255 109.861 338.628 110.598 342.022C116.097 339.516 121.438 336.418 126.786 333.594C131.606 331.049 135.85 328.45 141.315 327.6Z" fill="#5677BA"/>
<path d="M184.725 103.727C185.419 103.686 186.082 103.687 186.77 103.815C188.502 104.138 189.968 104.962 190.929 106.466C192.914 109.57 191.703 113.237 191.01 116.546C192.768 117.688 194.493 118.799 196.089 120.164C198.584 118.404 200.279 115.873 203.595 115.639C203.708 115.632 203.821 115.627 203.934 115.625C204.047 115.624 204.161 115.625 204.274 115.629C204.387 115.633 204.5 115.64 204.612 115.65C204.725 115.66 204.837 115.673 204.95 115.688C205.062 115.704 205.173 115.723 205.284 115.744C205.395 115.765 205.506 115.79 205.616 115.817C205.726 115.844 205.835 115.874 205.943 115.907C206.051 115.94 206.158 115.975 206.265 116.013C206.371 116.052 206.477 116.093 206.581 116.136C206.686 116.18 206.789 116.226 206.891 116.275C206.993 116.324 207.093 116.376 207.193 116.43C207.292 116.484 207.39 116.541 207.486 116.6C207.583 116.66 207.677 116.721 207.771 116.785C207.864 116.849 207.955 116.916 208.045 116.984C208.135 117.053 208.223 117.124 208.309 117.198C208.396 117.271 208.48 117.347 208.562 117.424C209.709 118.517 210.349 119.953 210.373 121.538C210.429 125.32 207.315 127.691 204.891 130.113C205.943 131.795 206.713 133.689 207.549 135.487C208.757 135.194 210.009 134.961 211.246 134.839C213.393 134.628 215.879 134.834 217.561 136.323C218.703 137.335 219.254 138.843 219.309 140.345C219.365 141.864 218.753 142.766 217.754 143.836C209.627 144.026 201.449 143.809 193.315 143.806C192.589 139.493 190.747 135.678 187.485 132.72C187.279 132.531 187.069 132.347 186.855 132.169C186.64 131.99 186.421 131.817 186.198 131.65C185.974 131.482 185.747 131.32 185.516 131.164C185.284 131.008 185.049 130.857 184.81 130.713C184.571 130.569 184.328 130.43 184.082 130.298C183.837 130.166 183.588 130.04 183.335 129.92C183.083 129.8 182.828 129.687 182.57 129.58C182.312 129.473 182.052 129.373 181.789 129.279C181.526 129.185 181.26 129.098 180.993 129.017C180.726 128.936 180.457 128.863 180.186 128.795C179.914 128.728 179.642 128.668 179.368 128.615C179.094 128.561 178.818 128.515 178.542 128.475C178.266 128.435 177.989 128.403 177.711 128.377C177.432 128.351 177.154 128.333 176.875 128.321C176.596 128.309 176.317 128.304 176.038 128.307C175.758 128.309 175.479 128.318 175.201 128.334C170.275 128.578 166.544 130.935 163.311 134.512C160.945 137.405 159.89 140.177 159.045 143.795L132.605 143.796C132.593 143.154 132.581 142.509 132.684 141.873C132.919 140.429 133.704 139.144 134.921 138.321C137.609 136.504 141.529 136.992 144.542 137.493C145.148 135.766 145.806 134.06 146.514 132.373C144.359 130.449 140.547 128.466 139.752 125.57C139.304 123.938 139.625 122.245 140.48 120.805C141.42 119.223 143.028 117.957 144.828 117.525C148.343 116.681 151.608 120.064 154.398 121.792C155.921 120.687 157.317 119.327 158.809 118.162C158.156 115.198 156.287 112.375 157.19 109.248C157.712 107.439 159.039 105.932 160.711 105.091C162.261 104.311 164.077 104.12 165.719 104.727C169.436 106.104 170.158 110.125 171.689 113.285C173.736 113.238 175.759 113.226 177.806 113.319C178.215 111.387 178.625 109.387 179.577 107.636C180.752 105.475 182.421 104.384 184.725 103.727Z" fill="#FEFEFE"/>
<path d="M131.907 145.214L263.377 145.294L298.347 145.299C303.646 145.291 310.756 144.87 315.831 145.457C318.494 145.766 320.866 147.028 322.761 148.9C327.234 153.317 326.461 159.63 326.479 165.393L326.481 252.89L326.522 279.22C326.531 283.82 326.929 288.799 326.325 293.344C325.997 295.815 324.515 298.554 322.746 300.303C320.796 302.233 318.405 303.443 315.673 303.768C310.483 304.385 303.774 303.952 298.398 303.957L264.024 303.972L147.989 303.964L147.976 300.3L288.029 300.392L305.488 300.459C308.636 300.47 312.208 300.804 315.305 300.251C317.056 299.938 318.772 299.235 320.111 298.046C322.164 296.224 323.139 293.543 323.256 290.853C323.393 287.7 323.259 284.491 323.247 281.332L323.233 264.241L323.236 209.161L323.24 175.129L323.246 164.741C323.245 162.654 323.345 160.504 323.106 158.429C322.824 155.984 321.593 153.602 319.913 151.82C317.547 149.31 314.461 148.442 311.131 148.411L161.183 148.381L112.306 148.394L97.5415 148.384C94.7645 148.383 91.8598 148.223 89.1028 148.52C88.7924 148.554 88.4841 148.602 88.1778 148.663C87.8713 148.724 87.568 148.798 87.268 148.885C86.9678 148.971 86.6718 149.071 86.3802 149.182C86.0885 149.294 85.8022 149.418 85.5212 149.554C85.2399 149.69 84.9651 149.838 84.6966 149.998C84.4278 150.157 84.1665 150.328 83.9126 150.509C83.6584 150.691 83.4123 150.883 83.1743 151.086C82.9365 151.288 82.7078 151.5 82.488 151.722C81.1231 153.086 80.0595 154.746 79.7376 156.671C79.2786 159.416 79.5227 162.41 79.5356 165.195C79.571 169.876 79.5817 174.556 79.5677 179.236L79.5848 237.487C78.7157 238.888 77.597 239.966 76.3934 241.076L76.3891 240.849C76.2899 234.647 76.4013 228.429 76.3985 222.224L76.3774 184.025L76.347 166.832C76.3391 163.448 76.0618 159.842 76.5782 156.5C76.9958 153.797 78.2766 151.359 80.1872 149.412C82.0931 147.47 84.3743 146.243 87.0313 145.679C91.6884 144.691 98.7013 145.214 103.654 145.22L131.907 145.214Z" fill="#FEFEFE"/>
<path d="M50.1478 310.747L103.111 310.705L103.124 354.352C93.0036 354.146 82.8513 354.298 72.727 354.295C71.4778 351.723 70.3267 349.171 69.479 346.433C67.8895 340.675 68.5442 329.614 68.5614 323.322C68.5661 321.555 68.8731 319.223 68.4489 317.527C68.0724 317.112 68.045 317.127 67.4884 317.028C67.2669 317.194 67.1524 317.212 67.0759 317.499C66.7317 318.788 67.0157 322.773 67.013 324.295C67.0028 329.796 66.8087 335.365 67.013 340.858C67.0648 342.053 67.2074 343.237 67.4407 344.411C68.1181 347.877 69.5407 351.115 71.0349 354.294C64.0556 354.394 57.0653 354.312 50.0853 354.31C49.87 349.226 50.0833 344.05 50.1013 338.957L50.1478 310.747Z" fill="#5677BA"/>
<path d="M173.078 305.261C179.572 305.048 186.119 305.204 192.618 305.214L227.67 305.277C228.986 309.596 229.741 314.294 230.747 318.711L237.045 346.333L228.613 346.346H164.837C164.715 345.193 164.537 343.97 164.681 342.816C164.902 341.048 165.507 339.227 165.933 337.494L168.066 328.486C169.857 320.771 171.321 312.983 173.078 305.261Z" fill="#FEFEFE"/>
<path d="M183.735 149.707L273.923 149.776L299.866 149.741C304.206 149.73 308.875 149.348 313.169 149.861C313.433 149.894 313.695 149.939 313.956 149.993C314.217 150.048 314.475 150.113 314.73 150.189C314.986 150.264 315.238 150.349 315.486 150.445C315.735 150.54 315.98 150.645 316.22 150.76C316.46 150.875 316.695 150.999 316.926 151.133C317.156 151.266 317.381 151.409 317.6 151.561C317.819 151.712 318.032 151.872 318.238 152.041C318.444 152.209 318.643 152.386 318.836 152.57C319.039 152.769 319.233 152.976 319.419 153.191C319.605 153.406 319.781 153.629 319.948 153.859C320.116 154.089 320.273 154.325 320.42 154.568C320.567 154.811 320.704 155.06 320.831 155.315C320.957 155.569 321.073 155.829 321.177 156.093C321.282 156.357 321.375 156.626 321.457 156.898C321.54 157.17 321.61 157.445 321.67 157.723C321.728 158.001 321.776 158.281 321.811 158.563C322.339 163.085 321.931 167.998 321.916 172.554L321.91 199.201L322.051 288.841C322.056 291.843 321.752 294.761 319.441 296.969C318.264 298.095 316.367 298.911 314.759 299.099C311.316 299.503 307.488 299.129 304.006 299.099L282.02 298.993L203.467 298.993L148.014 299.009C148.025 297.711 148.024 296.413 148.011 295.115C144.143 294.921 140.232 295.036 136.359 295.038L115.787 295.017C113.692 291.232 111.45 287.669 108.339 284.627C103.807 280.195 97.3008 276.621 90.9625 275.804C89.182 275.574 87.3187 275.674 85.525 275.695L85.5195 269.499C87.1613 269.432 88.6094 269.421 90.0734 268.563C91.5637 267.689 92.4598 266.114 92.8379 264.466C93.6375 260.983 92.1863 257.873 90.3344 255.034C90.8332 254.641 91.3449 254.246 91.7973 253.798C94.1438 251.479 95.1438 248.099 95.1637 244.866C95.1793 242.343 94.5113 238.616 92.6105 236.819C92.0824 236.32 91.384 235.986 90.643 236.06C89.0535 236.218 88.2047 237.455 87.2586 238.586C86.5297 237.771 85.7496 236.875 84.7644 236.367C83.4125 235.67 82.2551 235.945 80.8848 236.428C81.1062 217.94 80.9609 199.436 80.9559 180.946L80.9656 165.814C80.9648 162.978 80.7293 159.987 81.141 157.183C81.418 155.3 82.0938 154.135 83.4586 152.781C84.8777 151.374 86.7527 150.219 88.748 149.935C91.9516 149.48 95.4895 149.76 98.7262 149.759L117.549 149.764L183.735 149.707Z" fill="#FEFEFE"/>
<path d="M115.552 156.931C122.915 156.832 130.278 156.796 137.641 156.823C137.799 167.102 137.675 177.4 137.674 187.681L129.394 187.689C126.012 187.686 122.63 187.702 119.248 187.735C117.493 187.746 115.623 187.905 113.889 187.643C112.534 187.439 111.342 187.023 110.282 186.14C108.461 184.624 107.433 182.679 107.222 180.333C107.033 178.24 107.224 176.046 107.219 173.941C107.209 170.575 106.752 166.442 107.383 163.188C107.653 161.796 108.257 160.498 109.203 159.436C110.916 157.513 113.098 157.025 115.552 156.931Z" fill="#D1E1DD"/>
<path d="M272.085 252.044L302.31 252.025C302.068 258.718 302.277 265.461 302.296 272.161C302.304 275.138 302.548 278.341 302.108 281.28C301.93 282.471 301.536 283.326 300.92 284.348C299.524 285.724 298.303 286.092 296.342 286.165C293.093 286.286 289.813 286.125 286.558 286.168C283.607 286.206 280.424 286.517 277.494 286.221C276.386 286.109 274.625 285.783 273.813 284.957C273.073 284.204 272.475 283.073 272.296 282.033C271.738 278.786 272.077 275.032 272.078 271.73L272.085 252.044Z" fill="#D1E1DD"/>
<path d="M276.521 205.159C277.537 205.116 278.56 205.123 279.576 205.116C283.492 205.088 296.087 204.702 299.005 205.552C299.706 205.757 300.307 206.227 300.809 206.744C301.401 207.355 301.932 208.059 302.108 208.907C302.732 211.917 302.336 217.354 302.337 220.557L302.348 245.539L298.486 245.52L272.064 245.534C272.145 237.385 272.016 229.221 272.009 221.071C272.005 217.406 271.764 213.556 272.088 209.909C272.153 209.174 272.273 208.471 272.667 207.836C273.534 206.442 274.937 205.516 276.521 205.159Z" fill="#D1E1DD"/>
<path d="M147.557 156.938C157.012 156.699 166.505 156.944 175.964 156.968C184.889 156.99 193.872 156.776 202.789 157.088C203.6 157.755 204.246 158.384 204.854 159.245C205.161 164.064 205.044 168.979 205.073 173.808C205.091 176.844 205.413 180.255 204.939 183.255C204.698 184.788 203.687 185.982 202.471 186.88C201.581 187.364 200.775 187.575 199.768 187.659C194.321 188.113 187.411 187.731 181.831 187.72C169.974 187.67 158.118 187.72 146.263 187.87C146.125 181.964 146.237 176.036 146.238 170.129C146.239 165.847 146.075 161.518 146.271 157.243C146.71 156.881 147.008 156.968 147.557 156.938Z" fill="#D1E1DD"/>
<path d="M241.076 205.312C244.627 205.114 248.216 205.203 251.773 205.193C254.023 205.186 256.455 204.996 258.684 205.261C259.611 205.37 260.526 205.594 261.368 206.002C262.782 206.687 263.679 207.828 264.127 209.326C264.852 211.754 264.402 227.684 264.407 231.375L264.427 262.609C264.425 268.326 264.546 274.075 264.359 279.789C264.325 280.812 264.404 282.275 263.896 283.187C263.004 284.787 261.74 285.674 259.996 286.132C256.036 286.174 242.177 286.744 239.31 285.425C238.104 284.871 237.368 284.005 236.912 282.759C235.847 279.85 236.354 264.288 236.365 260.171L236.474 230.453C236.484 224.187 236.127 217.886 236.336 211.623C236.373 210.509 236.47 209.333 236.973 208.322C237.827 206.603 239.369 205.919 241.076 205.312Z" fill="#D1E1DD"/>
<path d="M229.256 157.064C237.792 156.637 246.472 156.98 255.028 156.991L302.938 157.052C302.875 162.794 302.933 168.543 302.933 174.286C302.933 176.96 303.177 179.92 302.795 182.559C302.504 184.569 301.539 185.85 299.92 187.022C298.911 187.479 298.037 187.622 296.93 187.663C292.025 187.846 287.062 187.676 282.149 187.679L252.184 187.658C248.295 187.651 233.464 188.097 231.068 187.394C229.568 186.954 228.379 186.032 227.646 184.641C227.126 183.653 226.88 182.572 226.785 181.466C226.553 178.774 226.812 175.951 226.801 173.239C226.786 169.123 226.541 164.921 226.751 160.814C226.786 160.132 226.846 159.371 227.096 158.735C227.446 157.842 228.457 157.439 229.256 157.064Z" fill="#D1E1DD"/>
<path d="M159.039 225.701C160.755 221.627 162.669 218.173 166.029 215.215C168.752 212.818 171.828 211.139 175.351 210.257C180.827 208.887 188.997 209.451 194.797 209.437C199.695 209.425 204.682 209.213 209.566 209.534C209.968 227.128 209.626 244.8 209.605 262.402L209.571 274.024C195.568 274.372 181.5 273.634 167.511 274.19C165.12 276.182 162.916 277.737 159.664 277.834C156.204 277.938 153.732 276.328 151.282 274.104C147.26 273.947 143.196 274.057 139.17 274.057C129.163 274.057 119.142 274.219 109.137 274.067C109.017 257.875 109.015 241.683 109.131 225.491C109.144 221.954 109.134 218.418 109.1 214.881C109.089 213.12 108.914 211.163 109.182 209.429C116.236 209.782 123.401 209.543 130.468 209.525C133.602 209.518 136.856 209.32 139.964 209.718C141.029 209.858 142.078 210.07 143.112 210.355C144.147 210.641 145.157 210.996 146.142 211.421C152.857 214.351 156.459 219.072 159.039 225.701Z" fill="#010101"/>
<path d="M159.125 272.388C160.781 271.967 162.379 271.525 163.863 270.651C165.413 269.738 166.949 268.128 168.699 267.671C171.08 267.05 178.207 267.43 181.077 267.431C190.125 267.435 199.182 267.367 208.229 267.505C208.269 268.772 208.657 271.516 208.053 272.639L207.576 272.773L166.689 272.781C166.585 272.904 166.479 273.025 166.371 273.145C164.623 275.095 162.505 276.395 159.838 276.491C156.483 276.612 154.405 275.016 152.063 272.878L112.757 272.717C112.691 271.375 112.299 269.152 113.168 268.049C113.539 267.578 114.117 267.55 114.667 267.476L139.054 267.462C141.811 267.468 147.094 267.068 149.626 267.705C151.311 268.129 152.886 269.679 154.405 270.545C155.914 271.405 157.459 271.916 159.125 272.388Z" fill="#D1E1DD"/>
<path d="M110.461 210.873C110.621 210.868 110.781 210.865 110.941 210.864L126.799 210.847C136.533 210.842 144.814 210.043 152.332 217.487C154.989 220.117 157.122 223.521 158.024 227.171C158.971 231.005 158.436 239.306 158.425 243.703L158.423 271.277C156.924 270.799 155.562 270.18 154.185 269.421C153.255 268.817 152.416 268.064 151.46 267.497C150.592 266.982 149.601 266.894 148.614 266.831C142.264 266.423 134.633 266.751 128.145 266.743C125.426 266.74 116.009 266.342 114.027 266.894C110.473 267.884 112.789 270.832 111.864 272.54C111.435 272.741 111.236 272.709 110.777 272.621C110.157 271.224 110.479 217.514 110.461 210.873Z" fill="#FEFEFE"/>
<path d="M118.753 225.953L150.256 226.037L150.223 231.73C146.355 231.892 142.434 231.721 138.561 231.704L118.698 231.72C118.66 229.8 118.724 227.873 118.753 225.953Z" fill="#D1E1DD"/>
<path d="M118.598 239.532C121.909 239.648 125.272 239.477 128.591 239.471L150.377 239.452L150.381 245.361L118.552 245.323L118.598 239.532Z" fill="#D1E1DD"/>
<path d="M128.263 252.636L150.267 252.706L150.225 258.706C147.305 258.584 144.378 258.613 141.455 258.609L118.701 258.647C118.613 256.655 118.676 254.657 118.708 252.664C121.893 252.703 125.078 252.694 128.263 252.636Z" fill="#D1E1DD"/>
<path d="M181.41 210.824C190.313 210.551 199.312 210.81 208.225 210.798L208.244 266.768L182.52 266.757C179.358 266.786 170.14 266.202 167.769 267.195C166.876 267.57 166.09 268.165 165.295 268.709C163.502 269.937 161.967 270.582 159.854 271.122L159.883 243.045C159.89 238.621 159.437 231.664 160.309 227.548C161.032 224.136 162.753 220.888 165.056 218.282C169.391 213.377 174.991 211.234 181.41 210.824Z" fill="#FEFEFE"/>
<path d="M168.963 225.99L199.428 226.104C199.426 227.217 199.766 230.836 199.195 231.695L169.065 231.771C168.99 229.847 168.991 227.916 168.963 225.99Z" fill="#D1E1DD"/>
<path d="M169.114 239.463C179.192 239.742 189.358 239.456 199.445 239.443L199.42 245.127C189.333 245.356 179.231 245.063 169.142 245.222L169.114 239.463Z" fill="#D1E1DD"/>
<path d="M168.986 252.593C179.117 252.846 189.307 252.634 199.441 252.543L199.403 258.554L169.095 258.403L168.986 252.593Z" fill="#D1E1DD"/>
</g>
<defs>
<clipPath id="clip0_29_6748">
<rect width="400" height="400" fill="white"/>
</clipPath>
</defs>
</svg>
