<svg width="19" height="24" viewBox="0 0 19 24" fill="none" xmlns="http://www.w3.org/2000/svg">
<path opacity="0.5" d="M13.5659 7.60884H5.45425M13.5659 7.60884C15.8058 7.60884 17.6217 9.58142 17.6217 12.0147V18.6236C17.6217 21.0569 15.8058 23.0295 13.5659 23.0295H5.45425C3.21429 23.0295 1.39844 21.0569 1.39844 18.6236V12.0147C1.39844 9.58142 3.21429 7.60884 5.45425 7.60884M13.5659 7.60884V5.40589C13.5659 2.97259 11.75 1 9.51007 1C7.2701 1 5.45425 2.97259 5.45425 5.40589V7.60884M11.538 15.3192C11.538 16.5358 10.63 17.5221 9.51007 17.5221C8.39008 17.5221 7.48216 16.5358 7.48216 15.3192C7.48216 14.1025 8.39008 13.1162 9.51007 13.1162C10.63 13.1162 11.538 14.1025 11.538 15.3192Z" stroke="#252525" stroke-width="1.20225" stroke-linecap="round" stroke-linejoin="round"/>
</svg>
