<svg width="23" height="22" viewBox="0 0 23 22" fill="none" xmlns="http://www.w3.org/2000/svg">
<path opacity="0.5" d="M14.5522 7.22755L8.46849 13.8364M5.42663 20.4452C3.18667 20.4452 1.37082 18.4726 1.37082 16.0393V14.9379C1.37082 14.3295 1.83724 13.8544 2.36641 13.6553C3.55745 13.2074 4.41268 11.9782 4.41268 10.532C4.41268 9.08576 3.55745 7.85655 2.36641 7.4086C1.83724 7.20958 1.37082 6.7344 1.37082 6.12608V5.02461C1.37082 2.5913 3.18667 0.618713 5.42663 0.618713H17.5941C19.834 0.618713 21.6499 2.5913 21.6499 5.02461V6.12608C21.6499 6.7344 21.1835 7.20958 20.6543 7.4086C19.4633 7.85655 18.608 9.08576 18.608 10.532C18.608 11.9782 19.4633 13.2074 20.6543 13.6553C21.1835 13.8544 21.6499 14.3295 21.6499 14.9379V16.0393C21.6499 18.4726 19.834 20.4452 17.5941 20.4452H5.42663ZM9.48245 7.22755C9.48245 7.83588 9.02849 8.32902 8.46849 8.32902C7.9085 8.32902 7.45454 7.83588 7.45454 7.22755C7.45454 6.61922 7.9085 6.12608 8.46849 6.12608C9.02849 6.12608 9.48245 6.61922 9.48245 7.22755ZM15.5662 13.8364C15.5662 14.4447 15.1122 14.9379 14.5522 14.9379C13.9922 14.9379 13.5383 14.4447 13.5383 13.8364C13.5383 13.2281 13.9922 12.7349 14.5522 12.7349C15.1122 12.7349 15.5662 13.2281 15.5662 13.8364Z" stroke="#252525" stroke-width="1.20225" stroke-linecap="round"/>
</svg>
