<svg width="23" height="25" viewBox="0 0 23 25" fill="none" xmlns="http://www.w3.org/2000/svg">
<g opacity="0.5">
<path d="M9.88626 23.4108H21.8151" stroke="#252525" stroke-width="1.20225" stroke-linecap="round"/>
<path fill-rule="evenodd" clip-rule="evenodd" d="M16.9054 2.44883C15.2725 0.893955 12.7778 1.0566 11.3321 2.81295C11.332 2.81314 11.3321 2.81305 11.3319 2.81324C11.327 2.81926 4.14589 11.5443 1.65519 14.5735C1.56499 14.683 1.48043 14.794 1.40124 14.9063C-1.23392 18.6422 4.65937 23.7328 7.56421 20.2025V20.2025C10.0199 17.22 17.2267 8.46525 17.2442 8.444C17.2447 8.44335 17.2445 8.44363 17.245 8.44298C18.6898 6.68634 18.5366 4.00348 16.9054 2.44883Z" stroke="#252525" stroke-width="1.20225" stroke-linecap="round" stroke-linejoin="round"/>
<path d="M9.12308 5.64775L14.5687 10.814" stroke="#252525" stroke-width="1.20225" stroke-linecap="round" stroke-linejoin="round"/>
</g>
</svg>
