<svg width="21" height="20" viewBox="0 0 21 20" fill="none" xmlns="http://www.w3.org/2000/svg">
<g opacity="0.5">
<path fill-rule="evenodd" clip-rule="evenodd" d="M17.7564 11.2992C17.4595 11.6218 17.4595 12.1449 17.7564 12.4675C18.0534 12.7901 18.5349 12.7901 18.8319 12.4675L20.1428 11.0434C20.8358 10.2907 20.8358 9.07018 20.1428 8.31742L18.8319 6.89333C18.5349 6.57071 18.0534 6.57071 17.7564 6.89333C17.4595 7.21594 17.4595 7.739 17.7564 8.06162C18.0353 8.36451 17.8204 8.85431 17.4087 8.85431H12.2847C11.8647 8.85431 11.5242 9.22417 11.5242 9.68042C11.5242 10.1367 11.8647 10.5065 12.2847 10.5065H17.4087C17.8204 10.5065 18.0353 10.9963 17.7564 11.2992Z" fill="#28303F"/>
<path fill-rule="evenodd" clip-rule="evenodd" d="M0.370819 5.27448C0.370819 2.38492 2.52714 0.0424805 5.1871 0.0424805H12.5383C15.1982 0.0424805 17.3545 2.38493 17.3545 5.27448C17.3545 5.73072 17.0141 6.10058 16.5941 6.10058C16.1741 6.10058 15.8336 5.73072 15.8336 5.27448C15.8336 3.29741 14.3582 1.69469 12.5383 1.69469H11.8305C10.306 1.69469 9.24291 3.74996 9.24291 5.27448V14.0863C9.24291 15.6108 10.306 17.666 11.8305 17.666H12.5383C14.3582 17.666 15.8336 16.0633 15.8336 14.0863C15.8336 13.63 16.1741 13.2602 16.5941 13.2602C17.0141 13.2602 17.3545 13.63 17.3545 14.0863C17.3545 16.9758 15.1982 19.3183 12.5383 19.3183H5.1871C2.52714 19.3183 0.370819 16.9758 0.370819 14.0863V5.27448Z" fill="#28303F"/>
</g>
</svg>
