<svg width="244" height="38" viewBox="0 0 244 38" fill="none" xmlns="http://www.w3.org/2000/svg">
<path d="M7.25 22V31H21.2V37H0.25V2H21.2V8H7.25V16H18.2V22H7.25ZM32.6714 11.75H39.2214L42.7714 13.8V0.499999H49.6214V37.25H43.9714L42.7714 35.2L39.2214 37.25H32.6714L26.8714 33.9V15.1L32.6714 11.75ZM42.7714 31.4V17.6H33.7214V31.4H42.7714ZM56.8248 33.9V12H63.6748V31.4H72.2248V12H79.0748V37.25H73.4248L72.2248 35.2L68.6748 37.25H62.6248L56.8248 33.9Z" fill="black"/>
<path d="M93.7412 14.35V37H86.7412V2H93.2912L108.391 24.65H108.491V2H115.491V37H108.941L93.8412 14.35H93.7412ZM130.677 22V31H144.627V37H123.677V2H144.627V8H130.677V16H141.627V22H130.677ZM147.798 37L159.098 19.1L148.298 2H156.198L163.048 12.85L169.948 2H177.848L166.998 19.1L178.348 37H170.448L163.048 25.35L155.698 37H147.798ZM203.785 2H210.785V33.9L204.985 37.25H189.335L183.535 33.9V2H190.535V30.75H203.785V2ZM218.957 19.25V5.1L224.757 1.75H237.407L243.207 5.1V11.75H236.207V7.75H225.957V16.1H237.407L243.207 19.45V33.9L237.407 37.25H224.257L218.457 33.9V27.25H225.457V31.25H236.207V22.6H224.757L218.957 19.25Z" fill="#FF6636"/>
</svg>
