<svg width="24" height="23" viewBox="0 0 24 23" fill="none" xmlns="http://www.w3.org/2000/svg">
<path d="M13.4099 11.5L17.7099 7.38875C17.8982 7.20829 18.004 6.96354 18.004 6.70833C18.004 6.45313 17.8982 6.20837 17.7099 6.02792C17.5216 5.84746 17.2662 5.74608 16.9999 5.74608C16.7336 5.74608 16.4782 5.84746 16.2899 6.02792L11.9999 10.1488L7.70994 6.02792C7.52164 5.84746 7.26624 5.74608 6.99994 5.74608C6.73364 5.74608 6.47824 5.84746 6.28994 6.02792C6.10164 6.20837 5.99585 6.45313 5.99585 6.70833C5.99585 6.96354 6.10164 7.20829 6.28994 7.38875L10.5899 11.5L6.28994 15.6113C6.19621 15.7003 6.12182 15.8063 6.07105 15.9231C6.02028 16.0399 5.99414 16.1652 5.99414 16.2917C5.99414 16.4182 6.02028 16.5434 6.07105 16.6602C6.12182 16.777 6.19621 16.883 6.28994 16.9721C6.3829 17.0619 6.4935 17.1332 6.61536 17.1819C6.73722 17.2305 6.86793 17.2556 6.99994 17.2556C7.13195 17.2556 7.26266 17.2305 7.38452 17.1819C7.50638 17.1332 7.61698 17.0619 7.70994 16.9721L11.9999 12.8512L16.2899 16.9721C16.3829 17.0619 16.4935 17.1332 16.6154 17.1819C16.7372 17.2305 16.8679 17.2556 16.9999 17.2556C17.132 17.2556 17.2627 17.2305 17.3845 17.1819C17.5064 17.1332 17.617 17.0619 17.7099 16.9721C17.8037 16.883 17.8781 16.777 17.9288 16.6602C17.9796 16.5434 18.0057 16.4182 18.0057 16.2917C18.0057 16.1652 17.9796 16.0399 17.9288 15.9231C17.8781 15.8063 17.8037 15.7003 17.7099 15.6113L13.4099 11.5Z" fill="black"/>
</svg>
